<svg xmlns="http://www.w3.org/2000/svg" width="240" height="240" viewBox="0 0 64 64">
  <defs>
    <radialGradient id="g" cx="35%" cy="35%" r="65%">
      <stop offset="0" stop-color="#ffe27a"/>
      <stop offset="1" stop-color="#ffb703"/>
    </radialGradient>
  </defs>

  <!-- Girasol -->
  <g transform="translate(18 22)">
    <circle r="9.5" fill="url(#g)"/>
    <circle r="5.6" fill="#a35b2e"/>
    <g fill="#ffd166">
      <ellipse rx="3.6" ry="9" transform="rotate(0) translate(0 -15)"/>
      <ellipse rx="3.6" ry="9" transform="rotate(30) translate(0 -15)"/>
      <ellipse rx="3.6" ry="9" transform="rotate(60) translate(0 -15)"/>
      <ellipse rx="3.6" ry="9" transform="rotate(90) translate(0 -15)"/>
      <ellipse rx="3.6" ry="9" transform="rotate(120) translate(0 -15)"/>
      <ellipse rx="3.6" ry="9" transform="rotate(150) translate(0 -15)"/>
    </g>
    <rect x="-1.8" y="9" width="3.6" height="14" rx="1.8" fill="#2ea37b"/>
    <ellipse cx="-6" cy="13" rx="6.5" ry="3" fill="#2ea37b"/>
    <ellipse cx="7.2" cy="17" rx="6.5" ry="3" fill="#2ea37b"/>
  </g>

  <!-- Margarita -->
  <g transform="translate(48 46)">
    <circle r="6.2" fill="#fff7ee"/>
    <g fill="#fff7ee">
      <ellipse rx="2.6" ry="6.6" transform="rotate(0) translate(0 -10)"/>
      <ellipse rx="2.6" ry="6.6" transform="rotate(45) translate(0 -10)"/>
      <ellipse rx="2.6" ry="6.6" transform="rotate(90) translate(0 -10)"/>
      <ellipse rx="2.6" ry="6.6" transform="rotate(135) translate(0 -10)"/>
    </g>
    <circle r="3.2" fill="#ffd257"/>
  </g>
</svg>
